# xmcd
#
# Track frame offsets:
#	150
#	17145
#	41637
#	54955
#	66295
#	83435
#	98425
#	117805
#	133907
#	149500
#	162932
#	180325
#
# Disc length: 2722 seconds
#
# Revision: 5
# Processed by: cddbd v1.5.2PL0 Copyright (c) Steve Scherf et al.
# Submitted via: EasyCDDAExtractor 16.0.6.1
#
DISCID=960aa00c
DTITLE=Dwight Yoakam - C-092 La Croix d'Amour
DYEAR=1992
DGENRE=Country
TTITLE0=Things we said today
TTITLE1=Truckin'
TTITLE2=If there was a way
TTITLE3=Hey little girl
TTITLE4=What I don't know
TTITLE5=Here comes the night
TTITLE6=Dangerous man
TTITLE7=Let's work together
TTITLE8=Doin' what I did
TTITLE9=Takes a lot to rock you
TTITLE10=Suspicious minds
TTITLE11=Long white Cadillac
EXTD=
EXTT0=
EXTT1=
EXTT2=
EXTT3=
EXTT4=
EXTT5=
EXTT6=
EXTT7=
EXTT8=
EXTT9=
EXTT10=
EXTT11=
PLAYORDER=
